HIERARCHY
ROOT hip
{
  OFFSET -3.45441 84.2526 35.6974
  CHANNELS 6 Xposition Yposition Zposition Zrotation Xrotation Yrotation
  JOINT abdomen
  {
    OFFSET 0 20.6881 -0.73152
    CHANNELS 3 Zrotation Xrotation Yrotation
    JOINT chest
    {
      OFFSET 0 11.7043 -0.48768
      CHANNELS 3 Zrotation Xrotation Yrotation
      JOINT neck
      {
        OFFSET 0 22.1894 -2.19456
        CHANNELS 3 Zrotation Xrotation Yrotation
        JOINT head
        {
          OFFSET -0.24384 7.07133 1.2192
          CHANNELS 3 Zrotation Xrotation Yrotation
          JOINT leftEye
          {
            OFFSET 4.14528 8.04674 8.04672
            CHANNELS 3 Zrotation Xrotation Yrotation
            End Site
            {
              OFFSET 1 0 0
            }
          }
          JOINT rightEye
          {
            OFFSET -3.6576 8.04674 8.04672
            CHANNELS 3 Zrotation Xrotation Yrotation
            End Site
            {
              OFFSET 1 0 0
            }
          }
        }
      }
      JOINT rCollar
      {
        OFFSET -2.68224 19.2634 -4.8768
        CHANNELS 3 Zrotation Xrotation Yrotation
        JOINT rShldr
        {
          OFFSET -8.77824 -1.95073 1.46304
          CHANNELS 3 Zrotation Xrotation Yrotation
          JOINT rForeArm
          {
            OFFSET -28.1742 -1.7115 0.48768
            CHANNELS 3 Zrotation Xrotation Yrotation
            JOINT rHand
            {
              OFFSET -22.5879 0.773209 7.07136
              CHANNELS 3 Zrotation Xrotation Yrotation
              JOINT rThumb1
              {
                OFFSET -1.2192 -0.487915 3.41376
                CHANNELS 3 Zrotation Xrotation Yrotation
                JOINT rThumb2
                {
                  OFFSET -3.37035 -0.52449 3.41376
                  CHANNELS 3 Zrotation Xrotation Yrotation
                  End Site
                  {
                    OFFSET -1.78271 -1.18214 1.43049
                  }
                }
              }
              JOINT rIndex1
              {
                OFFSET -7.75947 0.938293 5.60832
                CHANNELS 3 Zrotation Xrotation Yrotation
                JOINT rIndex2
                {
                  OFFSET -2.54057 -0.884171 1.56538
                  CHANNELS 3 Zrotation Xrotation Yrotation
                  End Site
                  {
                    OFFSET -1.62519 -0.234802 1.16502
                  }
                }
              }
              JOINT rMid1
              {
                OFFSET -8.24714 1.18213 3.41376
                CHANNELS 3 Zrotation Xrotation Yrotation
                JOINT rMid2
                {
                  OFFSET -3.10165 -0.590103 1.0647
                  CHANNELS 3 Zrotation Xrotation Yrotation
                  End Site
                  {
                    OFFSET -2.48547 -0.328903 0.83742
                  }
                }
              }
              JOINT rRing1
              {
                OFFSET -8.82822 0.546677 1.51678
                CHANNELS 3 Zrotation Xrotation Yrotation
                JOINT rRing2
                {
                  OFFSET -2.60934 -0.819778 -0.0198488
                  CHANNELS 3 Zrotation Xrotation Yrotation
                  End Site
                  {
                    OFFSET -2.33842 -0.294052 0.168128
                  }
                }
              }
              JOINT rPinky1
              {
                OFFSET -8.27202 -0.0477905 -0.4584
                CHANNELS 3 Zrotation Xrotation Yrotation
                JOINT rPinky2
                {
                  OFFSET -1.82734 -0.647385 -0.700984
                  CHANNELS 3 Zrotation Xrotation Yrotation
                  End Site
                  {
                    OFFSET -1.69225 -0.51767 -0.607171
                  }
                }
              }
            }
          }
        }
      }
      JOINT lCollar
      {
        OFFSET 2.68224 19.2634 -4.8768
        CHANNELS 3 Zrotation Xrotation Yrotation
        JOINT lShldr
        {
          OFFSET 8.77824 -1.95073 1.46304
          CHANNELS 3 Zrotation Xrotation Yrotation
          JOINT lForeArm
          {
            OFFSET 28.1742 -1.7115 0.48768
            CHANNELS 3 Zrotation Xrotation Yrotation
            JOINT lHand
            {
              OFFSET 22.5879 0.773209 7.07136
              CHANNELS 3 Zrotation Xrotation Yrotation
              JOINT lThumb1
              {
                OFFSET 1.2192 -0.487915 3.41376
                CHANNELS 3 Zrotation Xrotation Yrotation
                JOINT lThumb2
                {
                  OFFSET 3.37035 -0.52449 3.41376
                  CHANNELS 3 Zrotation Xrotation Yrotation
                  End Site
                  {
                    OFFSET 1.78271 -1.18214 1.43049
                  }
                }
              }
              JOINT lIndex1
              {
                OFFSET 7.75947 0.938293 5.60832
                CHANNELS 3 Zrotation Xrotation Yrotation
                JOINT lIndex2
                {
                  OFFSET 2.54057 -0.884171 1.56538
                  CHANNELS 3 Zrotation Xrotation Yrotation
                  End Site
                  {
                    OFFSET 1.62519 -0.234802 1.16502
                  }
                }
              }
              JOINT lMid1
              {
                OFFSET 8.24714 1.18213 3.41376
                CHANNELS 3 Zrotation Xrotation Yrotation
                JOINT lMid2
                {
                  OFFSET 3.10165 -0.590103 1.0647
                  CHANNELS 3 Zrotation Xrotation Yrotation
                  End Site
                  {
                    OFFSET 2.48547 -0.328903 0.83742
                  }
                }
              }
              JOINT lRing1
              {
                OFFSET 8.82822 0.546677 1.51678
                CHANNELS 3 Zrotation Xrotation Yrotation
                JOINT lRing2
                {
                  OFFSET 2.60934 -0.819778 -0.0198488
                  CHANNELS 3 Zrotation Xrotation Yrotation
                  End Site
                  {
                    OFFSET 2.33842 -0.294052 0.168128
                  }
                }
              }
              JOINT lPinky1
              {
                OFFSET 8.27202 -0.0477905 -0.4584
                CHANNELS 3 Zrotation Xrotation Yrotation
                JOINT lPinky2
                {
                  OFFSET 1.82734 -0.647385 -0.700984
                  CHANNELS 3 Zrotation Xrotation Yrotation
                  End Site
                  {
                    OFFSET 1.69225 -0.51767 -0.607171
                  }
                }
              }
            }
          }
        }
      }
    }
  }
  JOINT rButtock
  {
    OFFSET -8.77824 4.35084 1.2192
    CHANNELS 3 Zrotation Xrotation Yrotation
    JOINT rThigh
    {
      OFFSET 0 -1.70687 -2.19456
      CHANNELS 3 Zrotation Xrotation Yrotation
      JOINT rShin
      {
        OFFSET 0 -36.8199 0.73152
        CHANNELS 3 Zrotation Xrotation Yrotation
        JOINT rFoot
        {
          OFFSET 0.73152 -45.1104 -5.12064
          CHANNELS 3 Zrotation Xrotation Yrotation
          End Site
          {
            OFFSET -1.1221 -3.69964 12.103
          }
        }
      }
    }
  }
  JOINT lButtock
  {
    OFFSET 8.77824 4.35084 1.2192
    CHANNELS 3 Zrotation Xrotation Yrotation
    JOINT lThigh
    {
      OFFSET 0 -1.70687 -2.19456
      CHANNELS 3 Zrotation Xrotation Yrotation
      JOINT lShin
      {
        OFFSET 0 -36.8199 0.73152
        CHANNELS 3 Zrotation Xrotation Yrotation
        JOINT lFoot
        {
          OFFSET -0.73152 -45.1104 -5.12064
          CHANNELS 3 Zrotation Xrotation Yrotation
          End Site
          {
            OFFSET 1.1221 -3.69964 12.103
          }
        }
      }
    }
  }
}
MOTION
Frames:	4
Frame Time:	0.00833333
1.86714 82.0503 36.9978 10.618 -2.8642 -21.6304 25.9698 11.098 -18.3301 6.97361 -6.25236 -4.01594 9.85911 -8.33482 10.1179 -28.2716 -10.0515 13.8887 -0 0 0 -0 0 0 -3.00945e-014 -8.20452e-014 2.99997e-013 74.2394 11.7021 26.1611 -26.2913 -45.6563 94.883 -4.09482 -48.3686 -9.10031 -2.16254e-009 -4.39311e-010 1.2946e-010 -3.73099e-009 -7.90308e-010 1.32584e-010 -2.16254e-009 -4.39313e-010 1.29451e-010 7.73091 5.47488 0.417314 -2.16254e-009 -4.39313e-010 1.29459e-010 2.90554 0.965183 0.102902 -2.16253e-009 -4.39312e-010 1.29457e-010 10.2786 0.731801 0.0259123 -2.16254e-009 -4.39314e-010 1.29469e-010 2.22167 -0.733487 -0.20892 -3.00404e-014 -8.1951e-014 2.99789e-013 3.37599 18.6348 -103.351 26.3287 -24.3065 -58.1406 0.113153 9.54037 -1.35349 1.16661e-010 8.36766e-010 2.16089e-009 2.17541e-010 1.46876e-009 3.72807e-009 1.1666e-010 8.36768e-010 2.16089e-009 -7.73091 5.47488 -0.417314 1.16662e-010 8.36768e-010 2.16088e-009 -2.90554 0.965183 -0.102902 1.16663e-010 8.36767e-010 2.16088e-009 -10.2786 0.731801 -0.0259123 1.16663e-010 8.36769e-010 2.16087e-009 -2.22167 -0.733487 0.20892 -2.03217e-016 0 -3.88251e-019 -20.5648 -12.8564 12.8734 0.142835 19.6555 1.11168 2.1305 -14.8563 -16.2603 2.03217e-016 0 3.88251e-019 -9.00116 4.36242 20.117 -0.0534029 6.56114 -0.131316 0.158264 -11.0096 12.56 
1.86378 81.8952 37.2952 10.1918 -3.38277 -21.6465 25.867 10.5833 -18.4948 6.89565 -6.19878 -4.10674 9.73655 -8.03182 10.1522 -28.2829 -9.9519 14.0833 -0 0 0 -0 0 0 -1.91289e-013 -3.51694e-013 1.6251e-013 73.5957 11.4197 27.3572 -25.6787 -46.881 97.4412 -3.58916 -46.1449 -8.41221 -2.44165e-009 -1.9723e-010 5.48753e-010 -4.22956e-009 -3.65658e-010 8.5143e-010 -2.44164e-009 -1.97231e-010 5.48745e-010 7.73091 5.47488 0.417314 -2.44164e-009 -1.97231e-010 5.48755e-010 2.90554 0.965183 0.102902 -2.44164e-009 -1.9723e-010 5.4875e-010 10.2786 0.731801 0.0259123 -2.44165e-009 -1.9723e-010 5.48759e-010 2.22167 -0.733487 -0.20892 -1.91254e-013 -3.51605e-013 1.62305e-013 3.2393 17.7569 -102.835 26.6601 -25.2662 -59.6806 0.123764 9.9794 -1.41701 9.83582e-010 2.88624e-009 2.18079e-009 1.71291e-009 5.01298e-009 3.75527e-009 9.8358e-010 2.88624e-009 2.18079e-009 -7.73091 5.47488 -0.417314 9.83583e-010 2.88624e-009 2.18078e-009 -2.90554 0.965183 -0.102902 9.83583e-010 2.88624e-009 2.18078e-009 -10.2786 0.731801 -0.0259123 9.83585e-010 2.88625e-009 2.18077e-009 -2.22167 -0.733487 0.20892 -2.03217e-016 0 -3.88251e-019 -20.3618 -12.3903 12.8042 0.143619 20.2274 1.13504 2.13697 -15.1385 -16.0305 2.03217e-016 0 3.88251e-019 -8.66643 4.65239 20.398 -0.0569275 7.60198 -0.167539 0.078192 -11.5406 12.525 
1.81093 81.7463 37.6131 9.68458 -3.89847 -21.6059 25.7706 10.061 -18.6023 6.76706 -6.10679 -4.18603 9.61934 -7.78474 10.155 -28.2711 -9.7965 14.2155 -0 0 0 -0 0 0 -3.33971e-013 -6.0136e-013 1.53798e-014 72.7152 11.0737 28.8139 -25.0075 -48.0208 99.9369 -3.14947 -43.971 -7.79161 -2.64288e-009 -2.64327e-011 9.58914e-010 -4.59253e-009 -6.29598e-011 1.557e-009 -2.64287e-009 -2.64328e-011 9.58907e-010 7.73091 5.47488 0.417314 -2.64288e-009 -2.6433e-011 9.58919e-010 2.90554 0.965183 0.102902 -2.64287e-009 -2.64313e-011 9.58912e-010 10.2786 0.731801 0.0259123 -2.64288e-009 -2.64309e-011 9.58918e-010 2.22167 -0.733487 -0.20892 -3.33959e-013 -6.01286e-013 1.5181e-014 3.03109 16.7734 -102.289 26.967 -26.2374 -61.2509 0.132616 10.3314 -1.46807 1.7812e-009 4.86961e-009 1.96825e-009 3.08706e-009 8.44076e-009 3.38145e-009 1.7812e-009 4.86961e-009 1.96824e-009 -7.73091 5.47488 -0.417314 1.7812e-009 4.86961e-009 1.96824e-009 -2.90554 0.965183 -0.102902 1.7812e-009 4.86961e-009 1.96824e-009 -10.2786 0.731801 -0.0259123 1.78121e-009 4.86961e-009 1.96822e-009 -2.22167 -0.733487 0.20892 -2.03217e-016 0 -3.88251e-019 -20.077 -11.8945 12.6962 0.143934 20.8498 1.16144 2.13224 -15.4691 -15.7982 2.03217e-016 0 3.88251e-019 -8.20292 4.88278 20.6164 -0.0589462 8.82815 -0.202702 0.00193235 -12.1602 12.4849 
1.72939 81.6017 37.9396 9.15754 -4.401 -21.5862 25.6164 9.55509 -18.5391 6.55797 -5.9805 -4.22302 9.53752 -7.68128 10.1206 -28.2358 -9.50266 14.2662 -0 0 0 -0 0 0 -3.84831e-013 -6.96568e-013 -8.57756e-014 71.5692 10.5928 30.4584 -24.2958 -49.0068 102.335 -2.76503 -41.8314 -7.22676 -2.51156e-009 4.89552e-011 1.24822e-009 -4.37644e-009 7.35122e-011 2.06438e-009 -2.51155e-009 4.89567e-011 1.24821e-009 7.73091 5.47488 0.417314 -2.51156e-009 4.89558e-011 1.24822e-009 2.90554 0.965183 0.102902 -2.51155e-009 4.89583e-011 1.24822e-009 10.2786 0.731801 0.0259123 -2.51156e-009 4.89587e-011 1.24822e-009 2.22167 -0.733487 -0.20892 -3.8484e-013 -6.96514e-013 -8.59744e-014 2.85217 15.5991 -101.793 27.2501 -27.212 -62.8109 0.138534 10.5518 -1.50013 2.2633e-009 5.83638e-009 1.55068e-009 3.91595e-009 1.01079e-008 2.6564e-009 2.26329e-009 5.83637e-009 1.55067e-009 -7.73091 5.47488 -0.417314 2.2633e-009 5.83637e-009 1.55067e-009 -2.90554 0.965183 -0.102902 2.2633e-009 5.83637e-009 1.55066e-009 -10.2786 0.731801 -0.0259123 2.2633e-009 5.83637e-009 1.55065e-009 -2.22167 -0.733487 0.20892 -2.03217e-016 0 -3.88251e-019 -19.7769 -11.3822 12.5624 0.14336 21.4189 1.18118 2.12177 -15.7607 -15.5304 2.03217e-016 0 3.88251e-019 -7.72662 5.15634 20.8205 -0.0612733 9.96006 -0.239438 -0.0694475 -12.7534 12.4509 
